<svg width="44" height="76" viewBox="0 0 44 76" fill="none" xmlns="http://www.w3.org/2000/svg">
<path d="M18.28 39.4C21.36 33.84 27.28 30.56 30.72 25.64C34.36 20.48 32.32 10.84 22 10.84C15.24 10.84 11.92 15.96 10.52 20.2L0.160004 15.84C3 7.32 10.72 0 21.96 0C31.36 0 37.8 4.28 41.08 9.64C43.88 14.24 45.52 22.84 41.2 29.24C36.4 36.32 31.8 38.48 29.32 43.04C28.32 44.88 27.92 46.08 27.92 52H16.36C16.32 48.88 15.84 43.8 18.28 39.4ZM30 68C30 72.4 26.4 76 22 76C17.6 76 14 72.4 14 68C14 63.6 17.6 60 22 60C26.4 60 30 63.6 30 68Z" fill="#41CFED"/>
</svg>
