<svg width="127" height="136" viewBox="0 0 127 136" fill="none" xmlns="http://www.w3.org/2000/svg">
<g clip-path="url(#clip0_352_666)">
<path d="M0.847046 112.628C1.49888 109.964 2.35058 107.433 4.13391 105.437C7.20862 102.016 10.8521 100.801 14.9323 102.03C19.0124 103.258 21.6782 106.321 22.7359 111.006C24.6299 119.39 19.0924 127.198 11.5347 126.923C9.06719 126.82 6.69988 125.779 4.80676 123.965C2.91363 122.15 1.60259 119.665 1.08072 116.902C1.02138 116.687 0.943081 116.479 0.847046 116.282L0.847046 112.628Z" fill="#FFA41F"/>
<path d="M120.716 94.1482C115.873 92.5713 111.218 93.0113 106.772 95.6337C103.469 97.5668 100.772 100.627 99.0542 104.392C95.5644 111.847 96.0717 122.101 102.765 129.736C100.365 132.778 97.0614 134.689 93.4982 135.097C90.0022 135.54 86.7953 134.488 83.7851 132.46C79.9141 129.852 75.9908 127.346 72.1289 124.716C67.3539 121.474 66.7021 114.543 70.8222 110.699C73.0882 108.587 75.7048 108.007 78.386 109.474C80.8088 110.802 83.1056 112.424 85.5931 114.001L100.281 84.887C98.2609 83.5459 96.2654 82.2153 94.2668 80.8918C91.6441 79.1564 90.2174 76.5763 90.2513 73.0914C90.322 67.2059 95.9149 62.9291 100.469 65.636C105.782 68.727 110.928 72.1817 115.879 75.9814C120.426 79.5401 122.677 86.8547 120.716 94.1482Z" fill="#FFA41F"/>
<path d="M27.1221 84.8973L41.813 114.026C43.8823 112.67 45.8747 111.329 47.8948 110.048C51.1263 107.996 54.324 108.334 56.8545 110.949C60.2798 114.469 60.0645 120.897 56.2642 123.892C53.8044 125.821 51.1694 127.433 48.5774 129.134C46.2068 130.693 43.8608 132.319 41.398 133.671C35.8143 136.733 28.9023 135.054 24.6808 129.75C30.9378 121.794 32.469 113.029 27.817 103.413C25.7661 99.1886 22.5684 96.3092 18.5928 94.5915C14.793 92.9249 10.6155 92.7601 6.72446 94.1233C4.67671 87.84 6.77366 79.4729 11.6932 75.7769C16.499 72.1689 21.5323 68.9093 26.5748 65.7695C30.0062 63.6363 34.2277 65.2942 36.1341 69.0783C37.0883 70.9086 37.3891 73.0898 36.9738 75.1676C36.5586 77.2455 35.4593 79.06 33.9049 80.2333C31.768 81.9053 29.4435 83.3098 27.1221 84.8973Z" fill="#FFA41F"/>
<path d="M81.7127 17.5321C87.9543 18.9964 92.9631 25.5789 93.126 32.802C93.2613 38.8846 93.2305 44.9743 93.1537 51.0569C93.1385 52.1481 92.9354 53.2252 92.5562 54.2265C92.1769 55.2278 91.6289 56.1337 90.9435 56.8922C90.258 57.6507 89.4487 58.2471 88.5617 58.6471C87.6747 59.0471 86.7275 59.2429 85.7744 59.2233C83.8542 59.2074 82.0152 58.3352 80.6477 56.792C79.2802 55.2487 78.492 53.1561 78.4504 50.9583C78.4043 48.1423 78.4504 45.3544 78.4504 42.4539H48.9609C48.9609 45.2101 48.9824 47.9557 48.9609 50.7013C48.9117 55.7772 45.4219 59.5014 40.9974 59.2057C37.4984 58.9804 34.3253 55.4604 34.273 51.4617C34.1869 45.189 34.1377 38.9092 34.2945 32.6436C34.4729 25.505 39.6199 18.8521 45.6894 17.5567C48.5612 27.8035 54.5046 33.939 64.0762 33.7489C73.2449 33.5799 78.9239 27.5008 81.7127 17.5321Z" fill="#FFA41F"/>
<path d="M126.528 114.501C126.528 121.274 121.48 126.955 115.518 126.916C109.295 126.878 104.218 121.284 104.224 114.484C104.224 107.444 109.122 101.702 114.971 101.586C121.553 101.452 126.602 107.767 126.528 114.501Z" fill="#FFA41F"/>
<path d="M63.699 0.163768C65.8944 0.160448 68.041 0.904568 69.866 2.30152C71.691 3.69848 73.112 5.68517 73.9482 8.00901C74.7844 10.3329 74.9981 12.8889 74.5622 15.3522C74.1263 17.8154 73.0604 20.0747 71.5 21.8426C69.9397 23.6106 67.9553 24.8074 65.7993 25.281C63.6433 25.7546 61.4129 25.4834 59.3918 24.5021C57.3707 23.5208 55.6502 21.8736 54.4489 19.7699C53.2476 17.6663 52.6199 15.2012 52.6455 12.688C52.6658 9.351 53.8405 6.15919 55.9123 3.81173C57.9841 1.46427 60.7841 0.152511 63.699 0.163768Z" fill="#FFA41F"/>
</g>
<defs>
<clipPath id="clip0_352_666">
<rect width="125.682" height="135.032" fill="white" transform="translate(0.847046 0.164062)"/>
</clipPath>
</defs>
</svg>
