<svg width="220" height="196" viewBox="0 0 220 196" fill="none" xmlns="http://www.w3.org/2000/svg">
<g clip-path="url(#clip0_352_470)">
<path d="M0 163.243C1.13999 159.375 2.62952 155.702 5.74837 152.805C11.1257 147.839 17.4978 146.076 24.6336 147.859C31.7693 149.642 36.4314 154.087 38.2812 160.888C41.5937 173.058 31.9091 184.391 18.6916 183.992C14.3761 183.843 10.236 182.332 6.9251 179.698C3.61423 177.064 1.32136 173.456 0.408677 169.446C0.304886 169.134 0.167955 168.833 0 168.547L0 163.243Z" fill="#1B75B9"/>
<path d="M209.637 136.419C201.168 134.13 193.026 134.769 185.251 138.575C179.474 141.381 174.757 145.823 171.754 151.287C165.65 162.109 166.538 176.992 178.244 188.075C174.046 192.49 168.269 195.264 162.037 195.856C155.923 196.5 150.314 194.972 145.05 192.029C138.28 188.243 131.418 184.605 124.664 180.789C116.313 176.083 115.173 166.023 122.379 160.443C126.342 157.378 130.918 156.534 135.607 158.665C139.844 160.591 143.861 162.947 148.212 165.236L173.899 122.976C170.366 121.03 166.876 119.098 163.381 117.177C158.794 114.658 156.299 110.913 156.358 105.855C156.482 97.3119 166.263 91.1041 174.227 95.0331C183.52 99.5198 192.52 104.534 201.178 110.05C209.131 115.215 213.068 125.832 209.637 136.419Z" fill="#1B75B9"/>
<path d="M45.9522 122.991L71.6451 165.271C75.264 163.304 78.7485 161.357 82.2814 159.497C87.933 156.519 93.5255 157.009 97.951 160.805C103.941 165.915 103.565 175.244 96.9186 179.592C92.6167 182.392 88.0083 184.732 83.4752 187.2C79.3293 189.464 75.2264 191.824 70.9191 193.786C61.1539 198.231 49.0657 195.794 41.6826 188.094C52.6255 176.547 55.3034 163.825 47.1675 149.866C43.5808 143.735 37.9883 139.556 31.0354 137.062C24.3899 134.643 17.084 134.404 10.2789 136.383C6.69764 127.262 10.365 115.117 18.9687 109.753C27.3735 104.516 36.1762 99.7843 44.995 95.2268C50.9961 92.1305 58.3792 94.537 61.7131 100.03C63.3819 102.686 63.908 105.852 63.1818 108.868C62.4556 111.884 60.5331 114.518 57.8146 116.221C54.0773 118.648 50.0121 120.687 45.9522 122.991Z" fill="#1B75B9"/>
<path d="M141.425 25.21C152.341 27.3355 161.101 36.8899 161.386 47.3743C161.623 56.2033 161.569 65.0425 161.434 73.8715C161.408 75.4554 161.053 77.0188 160.389 78.4722C159.726 79.9256 158.768 81.2405 157.569 82.3415C156.37 83.4425 154.955 84.3081 153.403 84.8887C151.852 85.4693 150.196 85.7536 148.529 85.7252C145.171 85.702 141.954 84.436 139.563 82.196C137.171 79.956 135.793 76.9185 135.72 73.7284C135.639 69.6409 135.72 65.5943 135.72 61.3842H84.1459C84.1459 65.3848 84.1835 69.3701 84.1459 73.3554C84.0599 80.7231 77.9566 86.1288 70.2186 85.6996C64.0992 85.3726 58.5498 80.2633 58.4584 74.459C58.3078 65.3542 58.2218 56.2391 58.496 47.1444C58.8079 36.7826 67.8096 27.126 78.4244 25.2457C83.4468 40.1191 93.8412 49.0247 110.581 48.7488C126.616 48.5035 136.548 39.6797 141.425 25.21Z" fill="#1B75B9"/>
<path d="M219.803 165.961C219.803 175.792 210.973 184.038 200.547 183.982C189.663 183.926 180.785 175.807 180.796 165.936C180.796 155.717 189.362 147.384 199.59 147.215C211.103 147.021 219.932 156.187 219.803 165.961Z" fill="#1B75B9"/>
<path d="M109.921 -0.000383968C113.761 -0.00520253 117.515 1.07489 120.707 3.10259C123.899 5.13028 126.384 8.01398 127.846 11.3871C129.309 14.7601 129.682 18.4703 128.92 22.0457C128.158 25.6212 126.293 28.9005 123.564 31.4667C120.836 34.0329 117.365 35.7701 113.595 36.4575C109.824 37.1449 105.923 36.7514 102.389 35.327C98.8539 33.9026 95.8448 31.5116 93.7439 28.4582C91.643 25.4047 90.5452 21.8266 90.5899 18.1787C90.6255 13.335 92.6799 8.70203 96.3033 5.29467C99.9267 1.88731 104.824 -0.0167245 109.921 -0.000383968Z" fill="#1B75B9"/>
</g>
<defs>
<clipPath id="clip0_352_470">
<rect width="219.804" height="196" fill="white"/>
</clipPath>
</defs>
</svg>
