<svg width="74" height="72" viewBox="0 0 74 72" fill="none" xmlns="http://www.w3.org/2000/svg">
<path d="M37 0C16.597 0 0 16.1499 0 36C0 55.8501 16.597 72 37 72C57.403 72 74 55.8501 74 36C74 16.1499 57.403 0 37 0ZM51.7091 37.2613L30.1258 50.7613C29.8729 50.9209 29.5808 51 29.2917 51C29.0388 51 28.7828 50.9384 28.554 50.817C28.0571 50.5533 27.75 50.0493 27.75 49.5V22.5C27.75 21.9507 28.0571 21.4467 28.554 21.183C29.0418 20.9223 29.653 20.9384 30.1258 21.2387L51.7091 34.7387C52.1488 35.0141 52.4167 35.4902 52.4167 36C52.4167 36.5098 52.1488 36.9858 51.7091 37.2613Z" fill="#41CFED"/>
</svg>
